<svg width="525" height="79" viewBox="0 0 525 79" fill="none" xmlns="http://www.w3.org/2000/svg">
<g clip-path="url(#clip0)">
<path d="M77.4556 19.8046L40.2701 6.6846C39.7719 6.50871 39.2283 6.50871 38.73 6.6846L1.5445 19.8046C0.619952 20.1308 0.00122097 21.0041 -1.34092e-05 21.9845C-0.00124778 22.9649 0.615477 23.8396 1.53925 24.168L38.7248 37.3877C38.9755 37.4769 39.2378 37.5215 39.5 37.5215C39.7623 37.5215 40.0244 37.4769 40.2752 37.3877L77.4607 24.168C78.3845 23.8396 79.0011 22.9649 79 21.9845C78.9988 21.0041 78.38 20.1308 77.4556 19.8046Z" fill="#ffb703
"/>
<path d="M73.4411 50.6979V30.5097L68.8122 32.1553V50.6979C67.418 51.5004 66.4785 53.0041 66.4785 54.7283C66.4785 56.4524 67.418 57.9562 68.8122 58.7587V70.1329C68.8122 71.4111 69.8485 72.4473 71.1267 72.4473C72.4049 72.4473 73.4411 71.4111 73.4411 70.1329V58.7589C74.8354 57.9565 75.7749 56.4526 75.7749 54.7285C75.7749 53.0042 74.8355 51.5004 73.4411 50.6979Z" fill="#ffb703
"/>
<path d="M39.5 42.1504C38.7055 42.1504 37.9231 42.0153 37.1743 41.7492L16.2697 34.3175V44.5023C16.2697 46.994 18.8691 49.1013 23.9958 50.7652C28.4644 52.2156 33.9706 53.0144 39.5 53.0144C45.0294 53.0144 50.5355 52.2156 55.0042 50.7652C60.1309 49.1013 62.7303 46.994 62.7303 44.5023V34.3175L41.8259 41.7492C41.0769 42.0153 40.2945 42.1504 39.5 42.1504V42.1504Z" fill="#ffb703
"/>
</g>
<path d="M110.307 21.328C112.006 21.328 113.566 21.7267 114.987 22.524C116.443 23.2867 117.587 24.344 118.419 25.696C119.251 27.0133 119.667 28.4693 119.667 30.064C119.667 32.4907 119.13 34.3453 118.055 35.628C116.98 36.9107 115.524 37.8293 113.687 38.384V38.592C118.228 39.632 120.499 42.596 120.499 47.484C120.499 49.2173 120.048 50.812 119.147 52.268C118.28 53.724 117.084 54.8853 115.559 55.752C114.068 56.584 112.422 57 110.619 57H90.755V21.328H110.307ZM100.791 35.004H106.771C107.499 35.004 108.106 34.7613 108.591 34.276C109.111 33.756 109.371 33.132 109.371 32.404V31.52C109.371 30.792 109.111 30.1853 108.591 29.7C108.106 29.18 107.499 28.92 106.771 28.92H100.791V35.004ZM100.791 48.732H107.395C108.123 48.732 108.73 48.4893 109.215 48.004C109.735 47.484 109.995 46.86 109.995 46.132V45.196C109.995 44.468 109.735 43.8613 109.215 43.376C108.73 42.856 108.123 42.596 107.395 42.596H100.791V48.732ZM144.9 21.328C146.599 21.328 148.193 21.7093 149.684 22.472C151.209 23.2 152.44 24.24 153.376 25.592C154.312 26.9093 154.78 28.4347 154.78 30.168C154.78 31.416 154.485 32.6467 153.896 33.86C153.341 35.0733 152.579 36.1133 151.608 36.98C150.637 37.8467 149.563 38.384 148.384 38.592V38.852C150.291 39.4413 151.712 40.5507 152.648 42.18C153.619 43.7747 154.104 45.716 154.104 48.004C154.104 49.6333 154.26 51.0373 154.572 52.216C154.884 53.36 155.612 54.088 156.756 54.4V56.532C155.161 57.1907 153.081 57.52 150.516 57.52C148.055 57.52 146.217 57.0173 145.004 56.012C143.791 54.972 143.184 53.2387 143.184 50.812C143.184 48.524 142.889 46.6867 142.3 45.3C141.745 43.8787 140.497 43.168 138.556 43.168H135.54V57H124.88V21.328H144.9ZM135.54 35.212H141.052C141.78 35.212 142.387 34.9693 142.872 34.484C143.392 33.964 143.652 33.34 143.652 32.612V32.092C143.652 31.364 143.392 30.7573 142.872 30.272C142.387 29.752 141.78 29.492 141.052 29.492H135.54V35.212ZM178.681 28.972H174.469V49.304H178.681V57H159.233V49.304H163.445V28.972H159.233V21.328H178.681V28.972ZM200.224 20.808C202.79 20.808 205.182 21.3627 207.4 22.472C209.619 23.5813 211.387 25.124 212.704 27.1C214.022 29.076 214.68 31.312 214.68 33.808V34.172H204.592C204.592 32.404 204.107 31.0867 203.136 30.22C202.166 29.3533 200.918 28.92 199.392 28.92H199.132C197.676 28.92 196.446 29.4227 195.44 30.428C194.435 31.4333 193.932 32.664 193.932 34.12V44.156C193.932 45.612 194.435 46.8427 195.44 47.848C196.446 48.8533 197.676 49.356 199.132 49.356H200.068C201.524 49.356 202.634 48.9053 203.396 48.004C204.194 47.068 204.592 45.768 204.592 44.104H198.56V37.032H214.68V49.512C214.68 52.2507 214.732 54.0533 214.836 54.92L215.044 57H209.22L207.764 53.204C206.655 54.452 205.147 55.492 203.24 56.324C201.368 57.1213 199.479 57.52 197.572 57.52H197.052C194.244 57.52 191.696 56.8267 189.408 55.44C187.155 54.0533 185.387 52.164 184.104 49.772C182.822 47.38 182.18 44.7627 182.18 41.92V36.408C182.18 33.5307 182.874 30.9133 184.26 28.556C185.682 26.164 187.658 24.2747 190.188 22.888C192.719 21.5013 195.579 20.808 198.768 20.808H200.224ZM250.208 57H239.288V43.116H230.864V57H219.892V21.328H230.812V34.484H239.236V21.328H250.208V57ZM282.878 29.908H273.83V57H263.014V29.908H253.966V21.328H282.878V29.908ZM312.358 29.544H297.33V34.744H311.786V42.7H297.33V48.472H312.358L313.398 57H286.618V21.328H313.398L312.358 29.544ZM337.818 21.328C339.517 21.328 341.111 21.7093 342.602 22.472C344.127 23.2 345.358 24.24 346.294 25.592C347.23 26.9093 347.698 28.4347 347.698 30.168C347.698 31.416 347.403 32.6467 346.814 33.86C346.259 35.0733 345.497 36.1133 344.526 36.98C343.555 37.8467 342.481 38.384 341.302 38.592V38.852C343.209 39.4413 344.63 40.5507 345.566 42.18C346.537 43.7747 347.022 45.716 347.022 48.004C347.022 49.6333 347.178 51.0373 347.49 52.216C347.802 53.36 348.53 54.088 349.674 54.4V56.532C348.079 57.1907 345.999 57.52 343.434 57.52C340.973 57.52 339.135 57.0173 337.922 56.012C336.709 54.972 336.102 53.2387 336.102 50.812C336.102 48.524 335.807 46.6867 335.218 45.3C334.663 43.8787 333.415 43.168 331.474 43.168H328.458V57H317.798V21.328H337.818ZM328.458 35.212H333.97C334.698 35.212 335.305 34.9693 335.79 34.484C336.31 33.964 336.57 33.34 336.57 32.612V32.092C336.57 31.364 336.31 30.7573 335.79 30.272C335.305 29.752 334.698 29.492 333.97 29.492H328.458V35.212ZM367.491 20.808C371.721 20.808 375.187 21.7267 377.891 23.564C380.63 25.4013 381.999 28.1227 381.999 31.728V32.352H372.015V32.144C372.015 31.1387 371.651 30.324 370.923 29.7C370.23 29.0413 369.155 28.712 367.699 28.712C366.278 28.712 365.203 28.92 364.475 29.336C363.747 29.7173 363.383 30.2373 363.383 30.896C363.383 31.6933 363.799 32.3347 364.631 32.82C365.498 33.2707 366.746 33.6693 368.375 34.016L373.003 35.056C379.451 36.512 382.675 39.8573 382.675 45.092C382.675 49.356 381.271 52.4933 378.463 54.504C375.655 56.5147 371.773 57.52 366.815 57.52C364.077 57.52 361.546 57.104 359.223 56.272C356.935 55.44 355.081 54.1747 353.659 52.476C352.273 50.7427 351.579 48.6107 351.579 46.08V45.456C351.579 45.1787 351.597 44.9707 351.631 44.832H361.719C361.685 44.936 361.667 45.144 361.667 45.456C361.667 46.5307 362.031 47.4147 362.759 48.108C363.522 48.8013 364.77 49.148 366.503 49.148C368.41 49.148 369.71 48.9573 370.403 48.576C371.097 48.16 371.443 47.6053 371.443 46.912C371.443 46.08 370.958 45.456 369.987 45.04C369.017 44.5893 367.491 44.1387 365.411 43.688C362.777 43.1333 360.575 42.5267 358.807 41.868C357.074 41.1747 355.566 40.0653 354.283 38.54C353.001 36.98 352.359 34.848 352.359 32.144C352.359 29.7173 353.018 27.6547 354.335 25.956C355.687 24.2573 357.507 22.9747 359.795 22.108C362.083 21.2413 364.649 20.808 367.491 20.808ZM406.094 21.328C408.07 21.328 409.89 21.8133 411.554 22.784C413.253 23.7547 414.588 25.0893 415.558 26.788C416.529 28.452 417.014 30.272 417.014 32.248V33.392C417.014 35.368 416.529 37.2053 415.558 38.904C414.588 40.568 413.253 41.8853 411.554 42.856C409.89 43.8267 408.07 44.312 406.094 44.312H398.034V57H387.114V21.328H406.094ZM398.034 36.356H402.818C403.789 36.356 404.552 36.044 405.106 35.42C405.661 34.7613 405.938 34.0333 405.938 33.236V32.612C405.938 31.8147 405.661 31.104 405.106 30.48C404.586 29.8213 403.824 29.492 402.818 29.492H398.034V36.356ZM454.794 57H443.458L441.326 50.656H429.99L427.91 57H417.406L429.314 21.328H442.886L454.794 57ZM435.554 32.3L432.486 43.116H438.83L435.814 32.3H435.554ZM473.721 20.808C476.599 20.808 479.164 21.38 481.417 22.524C483.705 23.6333 485.508 25.332 486.825 27.62C488.143 29.8733 488.801 32.6467 488.801 35.94H478.557V34.12C478.557 32.5253 478.055 31.26 477.049 30.324C476.079 29.388 474.848 28.92 473.357 28.92H473.097C471.641 28.92 470.411 29.4227 469.405 30.428C468.4 31.4333 467.897 32.664 467.897 34.12V44.156C467.897 45.612 468.4 46.8427 469.405 47.848C470.411 48.8533 471.641 49.356 473.097 49.356H473.825C475.316 49.356 476.547 48.9053 477.517 48.004C478.523 47.068 479.025 45.7853 479.025 44.156V42.44H488.801C488.801 45.4907 488.16 48.16 486.877 50.448C485.629 52.736 483.896 54.4867 481.677 55.7C479.459 56.9133 476.945 57.52 474.137 57.52H472.681C469.596 57.52 466.788 56.896 464.257 55.648C461.761 54.4 459.785 52.5973 458.329 50.24C456.873 47.8827 456.145 45.1093 456.145 41.92V36.408C456.145 33.392 456.873 30.7053 458.329 28.348C459.82 25.956 461.796 24.1013 464.257 22.784C466.719 21.4667 469.388 20.808 472.265 20.808H473.721ZM518.733 29.544H503.705V34.744H518.161V42.7H503.705V48.472H518.733L519.773 57H492.993V21.328H519.773L518.733 29.544Z" fill="#ffb703
"/>
<defs>
<clipPath id="clip0">
<rect width="79" height="79"/>
</clipPath>
</defs>
</svg>
