<svg width="557" height="109" viewBox="0 0 557 109" fill="none" xmlns="http://www.w3.org/2000/svg">
<rect width="557" height="109"/>
<g clip-path="url(#clip0)">
<path d="M106.869 27.3254L55.5625 9.22306C54.8751 8.98036 54.1251 8.98036 53.4377 9.22306L2.13102 27.3254C0.855382 27.7754 0.00169042 28.9804 -1.27069e-05 30.3331C-0.00171583 31.6858 0.849208 32.8927 2.12378 33.3457L53.4304 51.5855C53.7764 51.7086 54.1383 51.7701 54.5 51.7701C54.8619 51.7701 55.2236 51.7086 55.5695 51.5855L106.876 33.3457C108.151 32.8927 109.001 31.6858 109 30.3331C108.998 28.9804 108.145 27.7754 106.869 27.3254Z" fill="#FFD453"/>
<path d="M101.33 69.9503V42.0957L94.9435 44.3662V69.9503C93.0198 71.0576 91.7235 73.1322 91.7235 75.5112C91.7235 77.8901 93.0198 79.9649 94.9435 81.0722V96.7656C94.9435 98.5292 96.3732 99.959 98.1368 99.959C99.9004 99.959 101.33 98.5292 101.33 96.7656V81.0724C103.254 79.9653 104.55 77.8903 104.55 75.5115C104.55 73.1324 103.254 71.0576 101.33 69.9503Z" fill="#FFD453"/>
<path d="M54.5 58.1568C53.4038 58.1568 52.3243 57.9705 51.2911 57.6033L22.448 47.3494V61.4019C22.448 64.8399 26.0346 67.7473 33.1081 70.0431C39.2736 72.0443 46.8709 73.1465 54.5 73.1465C62.1292 73.1465 69.7262 72.0443 75.8919 70.0431C82.9654 67.7473 86.552 64.8399 86.552 61.4019V47.3494L57.7091 57.6033C56.6758 57.9705 55.5962 58.1568 54.5 58.1568Z" fill="#FFD453"/>
</g>
<path d="M122.835 19.35H136.55C139.973 19.35 142.876 19.7183 145.26 20.455C147.686 21.1483 149.636 22.5133 151.11 24.55C152.583 26.5867 153.32 29.4467 153.32 33.13C153.32 36.25 152.648 38.6767 151.305 40.41C149.961 42.1433 148.055 43.2483 145.585 43.725C148.618 44.115 150.936 45.3933 152.54 47.56C154.143 49.7267 154.945 52.6733 154.945 56.4C154.945 66.8 149.636 72 139.02 72H122.835V19.35ZM136.745 40.41C139.215 40.41 140.883 39.8467 141.75 38.72C142.66 37.5933 143.115 35.8383 143.115 33.455C143.115 31.375 142.551 29.815 141.425 28.775C140.298 27.6917 138.651 27.15 136.485 27.15H134.47V40.41H136.745ZM136.94 63.875C139.41 63.875 141.143 63.2683 142.14 62.055C143.18 60.7983 143.7 58.8483 143.7 56.205C143.7 53.215 143.18 51.1133 142.14 49.9C141.143 48.6867 139.388 48.08 136.875 48.08H134.47V63.875H136.94ZM161.047 19.35H175.542C181.306 19.35 185.661 20.3683 188.607 22.405C191.554 24.4417 193.027 28.06 193.027 33.26C193.027 36.77 192.572 39.565 191.662 41.645C190.752 43.725 189.062 45.35 186.592 46.52L193.807 72H181.782L175.997 48.405H172.682V72H161.047V19.35ZM175.932 41.71C178.272 41.71 179.897 41.1033 180.807 39.89C181.761 38.6333 182.237 36.77 182.237 34.3C182.237 31.9167 181.804 30.14 180.937 28.97C180.071 27.7567 178.576 27.15 176.452 27.15H172.682V41.71H175.932ZM200.087 19.35H211.722V72H200.087V19.35ZM233.288 72.78C228.088 72.78 224.383 71.1983 222.173 68.035C219.963 64.8717 218.858 60.3867 218.858 54.58V36.9C218.858 30.9633 220.05 26.435 222.433 23.315C224.86 20.195 228.933 18.635 234.653 18.635C240.156 18.635 244.1 19.9783 246.483 22.665C248.866 25.3517 250.058 29.1433 250.058 34.04V37.42H238.683V33.13C238.683 31.05 238.445 29.49 237.968 28.45C237.491 27.3667 236.43 26.825 234.783 26.825C233.093 26.825 231.988 27.41 231.468 28.58C230.991 29.75 230.753 31.375 230.753 33.455V57.83C230.753 59.91 231.056 61.5567 231.663 62.77C232.313 63.94 233.461 64.525 235.108 64.525C238.141 64.525 239.658 62.25 239.658 57.7V51.525H234.913V44.7H250.123V72H242.453L241.803 67.645C240.156 71.0683 237.318 72.78 233.288 72.78ZM257.6 19.35H269.235V40.67H277.36V19.35H289.06V72H277.36V48.99H269.235V72H257.6V19.35ZM301.823 27.995H293.893V19.35H321.388V27.995H313.523V72H301.823V27.995ZM326.023 19.35H349.683V27.28H337.658V40.345H346.823V48.405H337.658V64.135H349.813V72H326.023V19.35ZM355.095 19.35H369.59C375.354 19.35 379.709 20.3683 382.655 22.405C385.602 24.4417 387.075 28.06 387.075 33.26C387.075 36.77 386.62 39.565 385.71 41.645C384.8 43.725 383.11 45.35 380.64 46.52L387.855 72H375.83L370.045 48.405H366.73V72H355.095V19.35ZM369.98 41.71C372.32 41.71 373.945 41.1033 374.855 39.89C375.809 38.6333 376.285 36.77 376.285 34.3C376.285 31.9167 375.852 30.14 374.985 28.97C374.119 27.7567 372.624 27.15 370.5 27.15H366.73V41.71H369.98ZM407.791 72.78C402.764 72.78 399.016 71.4583 396.546 68.815C394.119 66.1283 392.819 61.8817 392.646 56.075L402.591 54.58C402.634 57.9167 403.024 60.3217 403.761 61.795C404.541 63.225 405.689 63.94 407.206 63.94C409.156 63.94 410.131 62.6617 410.131 60.105C410.131 58.0683 409.654 56.3133 408.701 54.84C407.791 53.3667 406.339 51.785 404.346 50.095L399.796 46.13C397.543 44.2233 395.788 42.2083 394.531 40.085C393.318 37.9183 392.711 35.3617 392.711 32.415C392.711 27.995 394.011 24.5933 396.611 22.21C399.254 19.8267 402.873 18.635 407.466 18.635C412.449 18.635 415.829 20.0867 417.606 22.99C419.426 25.8933 420.401 29.425 420.531 33.585L410.521 34.82C410.434 32.09 410.174 30.14 409.741 28.97C409.351 27.7567 408.463 27.15 407.076 27.15C406.079 27.15 405.299 27.5833 404.736 28.45C404.216 29.2733 403.956 30.205 403.956 31.245C403.956 33.0217 404.346 34.5167 405.126 35.73C405.949 36.9433 407.249 38.33 409.026 39.89L413.381 43.725C415.981 45.935 417.996 48.275 419.426 50.745C420.856 53.215 421.571 56.14 421.571 59.52C421.571 61.99 420.986 64.2433 419.816 66.28C418.689 68.2733 417.086 69.855 415.006 71.025C412.926 72.195 410.521 72.78 407.791 72.78ZM427.205 19.35H444.885C449.521 19.35 452.988 20.6717 455.285 23.315C457.581 25.915 458.73 29.685 458.73 34.625C458.73 40.2583 457.386 44.18 454.7 46.39C452.056 48.5567 448.33 49.64 443.52 49.64H438.84V72H427.205V19.35ZM442.74 41.515C444.776 41.515 446.12 40.9733 446.77 39.89C447.463 38.8067 447.81 36.9867 447.81 34.43C447.81 32.09 447.485 30.3567 446.835 29.23C446.185 28.1033 444.798 27.54 442.675 27.54H438.84V41.515H442.74ZM468.702 19.35H481.962L491.777 72H481.052L479.297 60.885H471.562L469.742 72H458.757L468.702 19.35ZM478.192 53.93L475.397 33.39L472.602 53.93H478.192ZM511.347 72.78C505.627 72.78 501.554 71.285 499.127 68.295C496.744 65.2617 495.552 60.9067 495.552 55.23V36.25C495.552 30.4433 496.744 26.0667 499.127 23.12C501.511 20.13 505.584 18.635 511.347 18.635C516.851 18.635 520.751 19.9567 523.047 22.6C525.344 25.2433 526.492 28.9917 526.492 33.845V38.395H515.117V33.13C515.117 31.0933 514.901 29.5333 514.467 28.45C514.034 27.3667 512.994 26.825 511.347 26.825C509.701 26.825 508.617 27.41 508.097 28.58C507.577 29.7067 507.317 31.2883 507.317 33.325V58.09C507.317 60.17 507.577 61.7733 508.097 62.9C508.661 63.9833 509.744 64.525 511.347 64.525C512.951 64.525 513.969 63.9833 514.402 62.9C514.879 61.7733 515.117 60.17 515.117 58.09V52.565H526.492V57.115C526.492 62.055 525.344 65.9117 523.047 68.685C520.751 71.415 516.851 72.78 511.347 72.78ZM532.893 19.35H556.553V27.28H544.528V40.345H553.693V48.405H544.528V64.135H556.683V72H532.893V19.35Z" fill="#FFD453"/>
<defs>
<clipPath id="clip0">
<rect width="109" height="109" fill="white"/>
</clipPath>
</defs>
</svg>
